<svg xmlns="http://www.w3.org/2000/svg" width="26" height="26" viewBox="0 0 26 26">
  <path id="Subtraction_5" data-name="Subtraction 5" d="M25,26H1a1,1,0,0,1-1-1V1A1,1,0,0,1,1,0H25a1,1,0,0,1,1,1V25A1,1,0,0,1,25,26ZM7.5,3.5a4,4,0,0,0-4,4v11a4,4,0,0,0,4,4h11a4,4,0,0,0,4-4V7.5a4,4,0,0,0-4-4ZM18,21H8a3,3,0,0,1-3-3V8A3,3,0,0,1,8,5H18a3,3,0,0,1,3,3V18A3,3,0,0,1,18,21ZM13,8a5,5,0,1,0,5,5A5.006,5.006,0,0,0,13,8Zm5.548-1.538a1.2,1.2,0,1,0,1.2,1.2A1.2,1.2,0,0,0,18.549,6.462ZM13,16.5A3.5,3.5,0,1,1,16.5,13,3.5,3.5,0,0,1,13,16.5Z" fill="#fff"/>
</svg>
