<svg xmlns="http://www.w3.org/2000/svg" width="26" height="26" viewBox="0 0 26 26">
  <path id="Subtraction_6" data-name="Subtraction 6" d="M25,26H1a1,1,0,0,1-1-1V1A1,1,0,0,1,1,0H25a1,1,0,0,1,1,1V25A1,1,0,0,1,25,26ZM13.17,6c-.064,0-6.378,0-7.946.428a2.557,2.557,0,0,0-1.8,1.81A26.972,26.972,0,0,0,3,13.165a26.972,26.972,0,0,0,.425,4.928,2.557,2.557,0,0,0,1.8,1.81c1.568.423,7.882.427,7.946.427s6.378,0,7.947-.427a2.557,2.557,0,0,0,1.8-1.81,26.972,26.972,0,0,0,.425-4.928,26.972,26.972,0,0,0-.425-4.927,2.557,2.557,0,0,0-1.8-1.81C19.548,6.005,13.233,6,13.17,6ZM11.09,16.189V10.14l5.315,3.025-5.314,3.023Z" fill="#fff"/>
</svg>
